<?xml version="1.0" encoding="UTF-8"?>
<svg version="1.1" xmlns="http://www.w3.org/2000/svg" width="192" height="192">
<path d="M0 0 C63.36 0 126.72 0 192 0 C192 63.36 192 126.72 192 192 C128.64 192 65.28 192 0 192 C0 128.64 0 65.28 0 0 Z " fill="#010101" transform="translate(0,0)"/>
<path d="M0 0 C24.32406408 -1.89576039 24.32406408 -1.89576039 30.12744141 1.09716797 C33.44251218 4.09233598 35.07793623 7.70242793 36 12 C35.796875 14.76953125 35.796875 14.76953125 35 17 C34.154375 17.66 33.30875 18.32 32.4375 19 C28.45785075 23.89802985 29.41293677 28.92937909 30 35 C30.66750384 39.5094725 31.55586657 43.9563954 32.48193359 48.41748047 C33.09250191 51.4611146 33.651914 54.51217288 34.20703125 57.56640625 C34.42012939 58.73864746 34.63322754 59.91088867 34.8527832 61.11865234 C35.27289366 63.43520256 35.69205757 65.7519247 36.11010742 68.06884766 C38.15308953 81.98526228 38.15308953 81.98526228 43 95 C46.57345896 82.5540777 50.07846634 70.11248641 53.00341797 57.49658203 C55.00782039 48.86865228 57.15705624 40.27866699 59.3125 31.6875 C59.49561737 30.95707489 59.67873474 30.22664978 59.86740112 29.47409058 C60.91001432 25.31566097 61.95425543 21.15764345 63 17 C61.34278931 16.83238159 61.34278931 16.83238159 59.65209961 16.66137695 C56 16 56 16 53.56640625 13.41796875 C52.90511719 12.35191406 52.24382812 11.28585938 51.5625 10.1875 C50.88316406 9.12917969 50.20382813 8.07085937 49.50390625 6.98046875 C48 4 48 4 48 0 C52.51917419 -0.32077927 57.03542532 -0.5151892 61.5625 -0.6875 C63.47772461 -0.82575195 63.47772461 -0.82575195 65.43164062 -0.96679688 C69.24260501 -1.07568157 72.32390277 -1.03097026 76 0 C79.27608132 3.2734086 81.09418435 6.81774042 83 11 C83.99 12.485 83.99 12.485 85 14 C85.046875 16.3046875 85.046875 16.3046875 84.75 18.875 C84.66234375 19.71804687 84.5746875 20.56109375 84.484375 21.4296875 C84 24 84 24 83.08300781 26.18676758 C81.77443058 29.58594148 80.9792585 33.03691815 80.1875 36.58203125 C78.14524947 45.48334511 75.92025664 54.33160175 73.64550781 63.17602539 C72.99795805 65.69544459 72.35430096 68.21583705 71.7109375 70.73632812 C69.5244958 79.27266326 67.2613538 87.77273045 64.79077148 96.23193359 C64.15422631 98.4601365 63.57616614 100.67879401 63.0625 102.9375 C62.06086681 106.97948882 60.8618288 110.96227744 59.625 114.9375 C59.427854 115.61353271 59.23070801 116.28956543 59.02758789 116.98608398 C57.52437638 121.6811525 57.52437638 121.6811525 55.15625 123.12109375 C46.55938753 122.63829894 37.85055229 112.64197645 32 107 C30.99138916 106.09713257 30.99138916 106.09713257 29.96240234 105.17602539 C27.78424533 102.76075873 27.174652 101.20318246 26.41015625 98.0703125 C26.17184082 97.0999707 25.93352539 96.12962891 25.68798828 95.12988281 C24.50093949 89.72961117 23.44075288 84.31218754 22.4375 78.875 C21.07052869 71.55345086 19.65543913 64.26182401 18 57 C17.23375933 53.44464327 16.47648205 49.88778236 15.73046875 46.328125 C15.31897186 44.45328357 14.88259984 42.58225711 14.36328125 40.734375 C12.13865164 32.7193974 12.83996479 24.24181315 13 16 C12.26394531 16.11859375 11.52789062 16.2371875 10.76953125 16.359375 C8 16 8 16 5.76171875 13.515625 C4.73498047 11.89914063 4.73498047 11.89914063 3.6875 10.25 C2.99011719 9.18265625 2.29273437 8.1153125 1.57421875 7.015625 C0 4 0 4 0 0 Z " fill="#FAFAFA" transform="translate(88,35)"/>
<path d="M0 0 C7.2575367 -0.34939235 14.51323269 -0.61493585 21.77750969 -0.77718258 C25.15224286 -0.8551169 28.5211827 -0.96047845 31.89257812 -1.1315918 C53.62652489 -2.15488508 53.62652489 -2.15488508 59.2545166 1.44012451 C63.25040599 5.3432441 65.47862743 9.66683298 67 15 C66.78381137 18.83243474 65.29698182 21.72628162 63.5234375 25.09765625 C63.02094482 26.05808838 62.51845215 27.01852051 62.00073242 28.00805664 C61.46424072 29.01602295 60.92774902 30.02398926 60.375 31.0625 C59.5557605 32.61795532 59.5557605 32.61795532 58.7199707 34.20483398 C55.48007643 40.32271177 52.12279115 46.33079694 48.56640625 52.26953125 C46.78648901 55.37218 45.20300465 58.54007255 43.625 61.75 C41.08806643 66.90899914 38.40395464 71.94029213 35.5625 76.9375 C32.50133939 82.32254747 29.48713344 87.72687751 26.5625 93.1875 C26.23258057 93.79907959 25.90266113 94.41065918 25.56274414 95.04077148 C23.82624847 98.29902755 22.34219821 101.56369532 21 105 C23.574246 104.89972564 26.14837777 104.79749806 28.72241211 104.69189453 C30.91822869 104.6052068 33.11438847 104.52683562 35.31079102 104.45654297 C40.21066301 104.28421284 45.00273222 104.08445852 49.83984375 103.25390625 C53.72610288 102.62337505 57.08211443 102.22472936 61 103 C65.24587073 106.79394494 67.81310638 110.76360473 70 116 C70.05401593 117.66579112 70.06393244 119.33455999 70 121 C62.1853456 121.23247859 54.37151159 121.40976349 46.55426025 121.51812172 C42.92343391 121.57015292 39.29498506 121.640612 35.66552734 121.75439453 C32.15749088 121.86367261 28.65172826 121.92296188 25.14212036 121.94877243 C23.16291132 121.97604019 21.18460892 122.05401674 19.20678711 122.13296509 C10.37012384 122.13843296 10.37012384 122.13843296 6.45214844 118.88299561 C4.37855204 116.34197956 2.65572132 113.82820806 1 111 C0.43458496 110.11518951 -0.13083008 109.23037903 -0.71337891 108.3187561 C-2 106 -2 106 -1.890625 103.6484375 C-0.72947167 100.19553416 0.6887893 96.91085821 2.25 93.625 C2.59643555 92.89313477 2.94287109 92.16126953 3.29980469 91.40722656 C7.85300772 81.99206253 13.10716749 72.96312084 18.32861328 63.90771484 C19.94963564 61.08761898 21.55393895 58.25874674 23.15234375 55.42578125 C28.17475092 46.54023045 33.27866799 37.73881177 38.79174805 29.14672852 C41.10415832 25.52809372 43.1483471 21.87486468 45 18 C30.76229435 17.26943263 30.76229435 17.26943263 17.2265625 21.125 C14.52184631 22.18790601 12.87418217 22.52593382 10 22 C8.12109375 19.8046875 8.12109375 19.8046875 6.4375 16.875 C5.55384766 15.36679687 5.55384766 15.36679687 4.65234375 13.828125 C4.10707031 12.89484375 3.56179687 11.9615625 3 11 C2.17807736 9.86663659 1.34750331 8.73936421 0.5 7.625 C-1.3146963 4.44928147 -0.87072688 3.42562287 0 0 Z " fill="#F9F9F9" transform="translate(21,34)"/>
</svg>
