<?xml version="1.0" encoding="UTF-8"?>
<svg version="1.1" xmlns="http://www.w3.org/2000/svg" width="192" height="192">
<path d="M0 0 C63.36 0 126.72 0 192 0 C192 63.36 192 126.72 192 192 C128.64 192 65.28 192 0 192 C0 128.64 0 65.28 0 0 Z " fill="#FDFDFD" transform="translate(0,0)"/>
<path d="M0 0 C24.32406408 -1.89576039 24.32406408 -1.89576039 30.12744141 1.09716797 C33.44251218 4.09233598 35.07793623 7.70242793 36 12 C35.796875 14.76953125 35.796875 14.76953125 35 17 C34.154375 17.66 33.30875 18.32 32.4375 19 C28.45785075 23.89802985 29.41293677 28.92937909 30 35 C30.66750384 39.5094725 31.55586657 43.9563954 32.48193359 48.41748047 C33.09250191 51.4611146 33.651914 54.51217288 34.20703125 57.56640625 C34.42012939 58.73864746 34.63322754 59.91088867 34.8527832 61.11865234 C35.27289366 63.43520256 35.69205757 65.7519247 36.11010742 68.06884766 C38.15308953 81.98526228 38.15308953 81.98526228 43 95 C46.61475197 82.41025917 50.13617883 69.827436 53.07592773 57.06152344 C55.05634393 48.54922243 57.35130502 40.12688007 59.67773438 31.70336914 C59.96455078 30.65785889 60.25136719 29.61234863 60.546875 28.53515625 C60.93117676 27.14889038 60.93117676 27.14889038 61.32324219 25.73461914 C62.03996467 22.83851218 62.54555271 19.94767096 63 17 C61.40478516 16.93232422 61.40478516 16.93232422 59.77734375 16.86328125 C56 16 56 16 53.56640625 13.41796875 C52.90511719 12.35191406 52.24382812 11.28585938 51.5625 10.1875 C50.88316406 9.12917969 50.20382813 8.07085937 49.50390625 6.98046875 C48 4 48 4 48 0 C52.51917419 -0.32077927 57.03542532 -0.5151892 61.5625 -0.6875 C63.47772461 -0.82575195 63.47772461 -0.82575195 65.43164062 -0.96679688 C69.24260501 -1.07568157 72.32390277 -1.03097026 76 0 C79.27608132 3.2734086 81.09418435 6.81774042 83 11 C83.99 12.485 83.99 12.485 85 14 C85.48355491 19.97624275 83.53370546 25.83993956 81.7890625 31.48046875 C78.63133659 41.95637878 76.04361829 52.56366646 73.4375 63.1875 C67.90601302 85.69158803 67.90601302 85.69158803 64.77539062 96.31982422 C64.13937775 98.51823396 63.56914651 100.70672875 63.0625 102.9375 C62.06086681 106.97948882 60.8618288 110.96227744 59.625 114.9375 C59.427854 115.61353271 59.23070801 116.28956543 59.02758789 116.98608398 C57.52437638 121.6811525 57.52437638 121.6811525 55.15625 123.12109375 C46.55938753 122.63829894 37.85055229 112.64197645 32 107 C31.32759277 106.39776611 30.65518555 105.79553223 29.96240234 105.17504883 C27.78715281 102.76408863 27.1753076 101.21323174 26.41015625 98.0859375 C26.05268311 96.6313916 26.05268311 96.6313916 25.68798828 95.14746094 C24.23673715 88.50816724 23.01857569 81.83081078 21.80664062 75.14453125 C21.60103516 74.03722656 21.39542969 72.92992188 21.18359375 71.7890625 C21.00368896 70.79600098 20.82378418 69.80293945 20.63842773 68.77978516 C20.00702643 66.03059385 19.08359821 63.59829037 18 61 C17.65625 58.859375 17.65625 58.859375 17.5 56.75 C16.99606641 51.41007215 15.95358302 46.21104485 14.42578125 41.06640625 C12.18435393 32.91142601 12.83726578 24.38081245 13 16 C12.26394531 16.11859375 11.52789062 16.2371875 10.76953125 16.359375 C8 16 8 16 5.76171875 13.515625 C4.73498047 11.89914063 4.73498047 11.89914063 3.6875 10.25 C2.99011719 9.18265625 2.29273437 8.1153125 1.57421875 7.015625 C0 4 0 4 0 0 Z " fill="#040404" transform="translate(88,35)"/>
<path d="M0 0 C7.42323978 -0.25579741 14.84551847 -0.45076818 22.27228546 -0.56993389 C25.72185256 -0.62715748 29.16838886 -0.70462458 32.61621094 -0.82983398 C36.58751012 -0.9731373 40.5576187 -1.02575104 44.53125 -1.07421875 C45.75863892 -1.13099289 46.98602783 -1.18776703 48.25061035 -1.2462616 C56.6823413 -1.25229764 56.6823413 -1.25229764 60.54272461 2.41659546 C62.5834011 5.19783356 64.33196732 7.98370315 66 11 C66.99 12.485 66.99 12.485 68 14 C67.64667124 17.80083033 66.28648009 20.74624463 64.5234375 24.09765625 C64.02094482 25.05808838 63.51845215 26.01852051 63.00073242 27.00805664 C62.46424072 28.01602295 61.92774902 29.02398926 61.375 30.0625 C60.5557605 31.61795532 60.5557605 31.61795532 59.7199707 33.20483398 C56.48007643 39.32271177 53.12279115 45.33079694 49.56640625 51.26953125 C47.78648901 54.37218 46.20300465 57.54007255 44.625 60.75 C42.08806643 65.90899914 39.40395464 70.94029213 36.5625 75.9375 C33.50133939 81.32254747 30.48713344 86.72687751 27.5625 92.1875 C27.23258057 92.79907959 26.90266113 93.41065918 26.56274414 94.04077148 C24.82624847 97.29902755 23.34219821 100.56369532 22 104 C24.574246 103.89972564 27.14837777 103.79749806 29.72241211 103.69189453 C31.91822869 103.6052068 34.11438847 103.52683562 36.31079102 103.45654297 C41.21066301 103.28421284 46.00273222 103.08445852 50.83984375 102.25390625 C54.72610288 101.62337505 58.08211443 101.22472936 62 102 C66.24587073 105.79394494 68.81310638 109.76360473 71 115 C71.05401593 116.66579112 71.06393244 118.33455999 71 120 C63.1853456 120.23247859 55.37151159 120.40976349 47.55426025 120.51812172 C43.92343391 120.57015292 40.29498506 120.640612 36.66552734 120.75439453 C33.15749088 120.86367261 29.65172826 120.92296188 26.14212036 120.94877243 C24.16291132 120.97604019 22.18460892 121.05401674 20.20678711 121.13296509 C11.37012384 121.13843296 11.37012384 121.13843296 7.45214844 117.88299561 C5.37855204 115.34197956 3.65572132 112.82820806 2 110 C1.43458496 109.11518951 0.86916992 108.23037903 0.28662109 107.3187561 C-1 105 -1 105 -0.890625 102.6484375 C0.27052833 99.19553416 1.6887893 95.91085821 3.25 92.625 C3.59643555 91.89313477 3.94287109 91.16126953 4.29980469 90.40722656 C8.85300772 80.99206253 14.10716749 71.96312084 19.32861328 62.90771484 C20.94963564 60.08761898 22.55393895 57.25874674 24.15234375 54.42578125 C29.17475092 45.54023045 34.27866799 36.73881177 39.79174805 28.14672852 C42.10415832 24.52809372 44.1483471 20.87486468 46 17 C32.81939621 16.4418621 32.81939621 16.4418621 20.05859375 19.265625 C17.06737924 20.33269963 14.14793699 20.65783294 11 21 C10.54109375 20.27554688 10.0821875 19.55109375 9.609375 18.8046875 C8.99578125 17.83789062 8.3821875 16.87109375 7.75 15.875 C7.11449219 14.87082031 6.47898437 13.86664063 5.82421875 12.83203125 C4.44933837 10.69758097 3.0390152 8.62535697 1.5625 6.5625 C0 4 0 4 0 0 Z " fill="#030303" transform="translate(20,35)"/>
<path d="M0 0 C0.33 0 0.66 0 1 0 C1 3.63 1 7.26 1 11 C-2.63 11 -6.26 11 -10 11 C-9.01 10.01 -8.02 9.02 -7 8 C-6.34 8 -5.68 8 -5 8 C-4.67 7.01 -4.34 6.02 -4 5 C-3.34 5 -2.68 5 -2 5 C-1.34 3.35 -0.68 1.7 0 0 Z " fill="#000000" transform="translate(191,181)"/>
<path d="M0 0 C0.99 0.99 1.98 1.98 3 3 C3 3.66 3 4.32 3 5 C3.99 5.33 4.98 5.66 6 6 C6 6.66 6 7.32 6 8 C8.475 8.99 8.475 8.99 11 10 C11 10.33 11 10.66 11 11 C7.37 11 3.74 11 0 11 C0 7.37 0 3.74 0 0 Z " fill="#000000" transform="translate(0,181)"/>
<path d="M0 0 C3.63 0 7.26 0 11 0 C11 3.63 11 7.26 11 11 C10.01 10.01 9.02 9.02 8 8 C8 7.34 8 6.68 8 6 C7.01 5.67 6.02 5.34 5 5 C5 4.34 5 3.68 5 3 C2.525 2.01 2.525 2.01 0 1 C0 0.67 0 0.34 0 0 Z " fill="#000000" transform="translate(181,0)"/>
<path d="M0 0 C3.63 0 7.26 0 11 0 C9.515 1.485 9.515 1.485 8 3 C7.34 3 6.68 3 6 3 C5.67 3.99 5.34 4.98 5 6 C4.34 6 3.68 6 3 6 C2.34 7.65 1.68 9.3 1 11 C0.67 11 0.34 11 0 11 C0 7.37 0 3.74 0 0 Z " fill="#000000" transform="translate(0,0)"/>
</svg>
